# xmcd CD database file
#
# Track frame offsets:
#	150
#	33348
#	52537
#	87786
#	112935
#	158765
#	190572
#	224417
#	252034
#	283694
#	306780
#
# Disc length: 4600 seconds
#
# Revision: 0
# Processed by: cddbd v1.5.1PL2 Copyright (c) Steve Scherf et al.
# Submitted via: CDex 1.51
#
DISCID=8111f60b
DTITLE=Drop Trio - Cezanne
DYEAR=2005
DGENRE=Jazz
TTITLE0=wallawalla
TTITLE1=l.u.g.
TTITLE2=abbey rhodes
TTITLE3=luna
TTITLE4=wreck of the zephyr
TTITLE5=mothership
TTITLE6=smithee's second
TTITLE7=shelby
TTITLE8=wet dog
TTITLE9=robot suit i
TTITLE10=invisible pants
EXTD=YEAR: 2005
EXTT0=
EXTT1=
EXTT2=
EXTT3=
EXTT4=
EXTT5=
EXTT6=
EXTT7=
EXTT8=
EXTT9=
EXTT10=
PLAYORDER=
